<svg width="20" height="20" viewBox="0 0 20 20" fill="none" xmlns="http://www.w3.org/2000/svg">
<path d="M16.923 12.3077H18.4614V13.8461H16.923V12.3077ZM16.923 10.7692H18.4614V12.3077H16.923V10.7692ZM16.923 9.23073H18.4614V10.7692H16.923V9.23073ZM16.923 7.69227H18.4614V9.23073H16.923V7.69227ZM16.923 6.15381H18.4614V7.69227H16.923V6.15381Z" fill="white" fill-opacity="0.3"/>
<path d="M15.3846 13.8461H16.9231V15.3846H15.3846V13.8461Z" fill="white" fill-opacity="0.3"/>
<path d="M15.3846 4.61538H16.9231V6.15384H15.3846V4.61538ZM15.3846 3.07691H16.9231V4.61538H15.3846V3.07691ZM15.3846 1.53845H16.9231V3.07691H15.3846V1.53845Z" fill="white" fill-opacity="0.3"/>
<path d="M13.8461 13.8461H15.3845V15.3846H13.8461V13.8461Z" fill="white" fill-opacity="0.3"/>
<path d="M12.3076 13.8461H13.8461V15.3846H12.3076V13.8461Z" fill="white" fill-opacity="0.3"/>
<path d="M12.3076 6.15382H13.8461V7.69228H12.3076V6.15382ZM12.3076 4.61536H13.8461V6.15382H12.3076V4.61536Z" fill="white" fill-opacity="0.3"/>
<path d="M10.7692 13.8461H12.3076V15.3846H10.7692V13.8461Z" fill="white" fill-opacity="0.3"/>
<path d="M9.23071 13.8461H10.7692V15.3846H9.23071V13.8461Z" fill="white" fill-opacity="0.3"/>
<path d="M9.23071 6.15382H10.7692V7.69228H9.23071V6.15382ZM9.23071 4.61536H10.7692V6.15382H9.23071V4.61536Z" fill="white" fill-opacity="0.3"/>
<path d="M7.69226 13.8461H9.23072V15.3846H7.69226V13.8461Z" fill="white" fill-opacity="0.3"/>
<path d="M6.15381 13.8461H7.69227V15.3846H6.15381V13.8461Z" fill="white" fill-opacity="0.3"/>
<path d="M6.15381 6.15382H7.69227V7.69228H6.15381V6.15382ZM6.15381 4.61536H7.69227V6.15382H6.15381V4.61536Z" fill="white" fill-opacity="0.3"/>
<path d="M15.3846 12.3077H16.9231V13.8461H15.3846V12.3077ZM15.3846 10.7692H16.9231V12.3077H15.3846V10.7692ZM15.3846 9.23073H16.9231V10.7692H15.3846V9.23073ZM15.3846 7.69227H16.9231V9.23073H15.3846V7.69227ZM15.3846 6.15381H16.9231V7.69227H15.3846V6.15381Z" fill="white" fill-opacity="0.5"/>
<path d="M13.8461 12.3077H15.3845V13.8461H13.8461V12.3077ZM13.8461 10.7692H15.3845V12.3077H13.8461V10.7692ZM13.8461 9.23075H15.3845V10.7692H13.8461V9.23075ZM13.8461 7.69229H15.3845V9.23075H13.8461V7.69229ZM13.8461 6.15383H15.3845V7.69229H13.8461V6.15383ZM13.8461 4.61537H15.3845V6.15383H13.8461V4.61537ZM13.8461 3.0769H15.3845V4.61537H13.8461V3.0769Z" fill="white" fill-opacity="0.5"/>
<path d="M12.3076 12.3077H13.8461V13.8461H12.3076V12.3077Z" fill="white" fill-opacity="0.5"/>
<path d="M12.3076 7.69226H13.8461V9.23072H12.3076V7.69226Z" fill="white" fill-opacity="0.5"/>
<path d="M10.7692 12.3077H12.3076V13.8461H10.7692V12.3077ZM10.7692 10.7692H12.3076V12.3077H10.7692V10.7692ZM10.7692 9.23074H12.3076V10.7692H10.7692V9.23074ZM10.7692 7.69228H12.3076V9.23074H10.7692V7.69228ZM10.7692 6.15382H12.3076V7.69228H10.7692V6.15382ZM10.7692 4.61536H12.3076V6.15382H10.7692V4.61536Z" fill="white" fill-opacity="0.5"/>
<path d="M9.23083 10.7692H10.7693V12.3076H9.23083V10.7692ZM9.23083 9.23072H10.7693V10.7692H9.23083V9.23072ZM9.23083 7.69226H10.7693V9.23072H9.23083V7.69226Z" fill="white" fill-opacity="0.5"/>
<path d="M7.69226 12.3077H9.23072V13.8461H7.69226V12.3077ZM7.69226 10.7692H9.23072V12.3077H7.69226V10.7692ZM7.69226 9.23074H9.23072V10.7692H7.69226V9.23074ZM7.69226 7.69228H9.23072V9.23074H7.69226V7.69228ZM7.69226 6.15382H9.23072V7.69228H7.69226V6.15382ZM7.69226 4.61536H9.23072V6.15382H7.69226V4.61536Z" fill="white" fill-opacity="0.5"/>
<path d="M6.15381 12.3077H7.69227V13.8461H6.15381V12.3077Z" fill="white" fill-opacity="0.5"/>
<path d="M6.15381 7.69226H7.69227V9.23072H6.15381V7.69226Z" fill="white" fill-opacity="0.5"/>
<path d="M4.61536 12.3077H6.15382V13.8461H4.61536V12.3077ZM4.61536 10.7692H6.15382V12.3077H4.61536V10.7692ZM4.61536 9.23075H6.15382V10.7692H4.61536V9.23075ZM4.61536 7.69229H6.15382V9.23075H4.61536V7.69229ZM4.61536 6.15383H6.15382V7.69229H4.61536V6.15383ZM4.61536 4.61537H6.15382V6.15383H4.61536V4.61537ZM4.61536 3.0769H6.15382V4.61537H4.61536V3.0769Z" fill="white" fill-opacity="0.5"/>
<path d="M3.0769 12.3077H4.61537V13.8461H3.0769V12.3077ZM3.0769 10.7692H4.61537V12.3077H3.0769V10.7692ZM3.0769 9.23073H4.61537V10.7692H3.0769V9.23073ZM3.0769 7.69227H4.61537V9.23073H3.0769V7.69227ZM3.0769 6.15381H4.61537V7.69227H3.0769V6.15381Z" fill="white" fill-opacity="0.5"/>
<path d="M4.61536 13.8461H6.15382V15.3846H4.61536V13.8461Z" fill="white" fill-opacity="0.7"/>
<path d="M3.0769 13.8461H4.61537V15.3846H3.0769V13.8461Z" fill="white" fill-opacity="0.7"/>
<path d="M3.0769 4.61538H4.61537V6.15384H3.0769V4.61538ZM3.0769 3.07691H4.61537V4.61538H3.0769V3.07691ZM3.0769 1.53845H4.61537V3.07691H3.0769V1.53845Z" fill="white" fill-opacity="0.7"/>
<path d="M1.53845 12.3077H3.07691V13.8461H1.53845V12.3077ZM1.53845 10.7692H3.07691V12.3077H1.53845V10.7692ZM1.53845 9.23073H3.07691V10.7692H1.53845V9.23073ZM1.53845 7.69227H3.07691V9.23073H1.53845V7.69227ZM1.53845 6.15381H3.07691V7.69227H1.53845V6.15381Z" fill="white" fill-opacity="0.7"/>
<path d="M9.23083 16.9231H10.7693V18.4616H9.23083V16.9231Z" fill="white"/>
<path d="M4.61536 16.9231H6.15382V18.4616H4.61536V16.9231Z" fill="white" fill-opacity="0.7"/>
<path d="M6.15393 16.9231H7.69239V18.4616H6.15393V16.9231ZM7.69239 16.9231H9.23085V18.4616H7.69239V16.9231ZM10.7693 16.9231H12.3078V18.4616H10.7693V16.9231ZM12.3078 16.9231H13.8462V18.4616H12.3078V16.9231Z" fill="white" fill-opacity="0.3"/>
<path d="M13.8462 16.9231H15.3847V18.4616H13.8462V16.9231Z" fill="white" fill-opacity="0.1"/>
<path d="M3.0769 16.9231H4.61537V18.4616H3.0769V16.9231ZM15.3846 16.9231H16.9231V18.4616H15.3846V16.9231ZM18.4615 12.3077H20V13.8462H18.4615V12.3077ZM18.4615 10.7693H20V12.3077H18.4615V10.7693ZM18.4615 9.23079H20V10.7693H18.4615V9.23079ZM18.4615 7.69233H20V9.23079H18.4615V7.69233ZM18.4615 6.15387H20V7.69233H18.4615V6.15387ZM16.9231 13.8462H18.4615V15.3846H16.9231V13.8462Z" fill="#0A0E1A"/>
<path d="M16.9231 4.61539H18.4616V6.15385H16.9231V4.61539ZM16.9231 3.07692H18.4616V4.61539H16.9231V3.07692ZM16.9231 1.53846H18.4616V3.07692H16.9231V1.53846ZM16.9231 0H18.4616V1.53846H16.9231V0ZM15.3846 15.3846H16.9231V16.9231H15.3846V15.3846Z" fill="#0A0E1A"/>
<path d="M15.3847 0H16.9231V1.53846H15.3847V0ZM13.8462 15.3846H15.3847V16.9231H13.8462V15.3846Z" fill="#0A0E1A"/>
<path d="M13.8462 1.53845H15.3847V3.07691H13.8462V1.53845ZM12.3077 15.3846H13.8462V16.9231H12.3077V15.3846Z" fill="#0A0E1A"/>
<path d="M12.3077 10.7692H13.8462V12.3077H12.3077V10.7692ZM12.3077 9.23077H13.8462V10.7692H12.3077V9.23077Z" fill="#0A0E1A"/>
<path d="M12.3076 3.0769H13.8461V4.61537H12.3076V3.0769ZM10.7692 15.3846H12.3076V16.9231H10.7692V15.3846Z" fill="#0A0E1A"/>
<path d="M10.7693 3.0769H12.3078V4.61537H10.7693V3.0769ZM9.23083 15.3846H10.7693V16.9231H9.23083V15.3846Z" fill="#0A0E1A"/>
<path d="M9.23083 12.3077H10.7693V13.8461H9.23083V12.3077Z" fill="#0A0E1A"/>
<path d="M9.23072 3.0769H10.7692V4.61537H9.23072V3.0769ZM7.69226 15.3846H9.23072V16.9231H7.69226V15.3846Z" fill="#0A0E1A"/>
<path d="M7.69227 3.0769H9.23073V4.61537H7.69227V3.0769ZM6.15381 15.3846H7.69227V16.9231H6.15381V15.3846Z" fill="#0A0E1A"/>
<path d="M6.15381 10.7692H7.69227V12.3077H6.15381V10.7692ZM6.15381 9.23077H7.69227V10.7692H6.15381V9.23077Z" fill="#0A0E1A"/>
<path d="M6.15382 3.0769H7.69228V4.61537H6.15382V3.0769ZM4.61536 15.3846H6.15382V16.9231H4.61536V15.3846Z" fill="#0A0E1A"/>
<path d="M4.61537 1.53845H6.15383V3.07691H4.61537V1.53845ZM3.0769 15.3846H4.61537V16.9231H3.0769V15.3846Z" fill="#0A0E1A"/>
<path d="M1.53846 4.61539H3.07692V6.15385H1.53846V4.61539ZM1.53846 3.07692H3.07692V4.61539H1.53846V3.07692ZM1.53846 1.53846H3.07692V3.07692H1.53846V1.53846ZM1.53846 0H3.07692V1.53846H1.53846V0ZM0 12.3077H1.53846V13.8462H0V12.3077ZM0 10.7692H1.53846V12.3077H0V10.7692ZM0 9.23077H1.53846V10.7692H0V9.23077ZM0 7.69231H1.53846V9.23077H0V7.69231ZM0 6.15385H1.53846V7.69231H0V6.15385ZM3.07692 18.4615H4.61539V20H3.07692V18.4615ZM4.61539 18.4615H6.15385V20H4.61539V18.4615ZM6.15385 18.4615H7.69231V20H6.15385V18.4615ZM7.69231 18.4615H9.23077V20H7.69231V18.4615Z" fill="#0A0E1A"/>
<path d="M9.23083 18.4615H10.7693V20H9.23083V18.4615ZM10.7693 18.4615H12.3078V20H10.7693V18.4615ZM12.3078 18.4615H13.8462V20H12.3078V18.4615ZM13.8462 18.4615H15.3847V20H13.8462V18.4615ZM15.3847 18.4615H16.9231V20H15.3847V18.4615Z" fill="#0A0E1A"/>
<path d="M3.07691 0H4.61538V1.53846H3.07691V0ZM1.53845 13.8462H3.07691V15.3846H1.53845V13.8462Z" fill="#0A0E1A"/>
</svg>
