<svg width="128" height="43" viewBox="0 0 128 43" fill="none" xmlns="http://www.w3.org/2000/svg">
<path d="M3.83531 43C3.05552 43 2.38802 42.7201 1.83281 42.1604C1.2776 41.6006 1 40.9277 1 40.1415V31.8585C1 31.0723 1.2776 30.3994 1.83281 29.8396C2.38802 29.2799 3.05552 29 3.83531 29H15.7193L14.4092 31.4528H4.66812C4.28135 31.4528 3.97879 31.5629 3.76045 31.783C3.54211 32.0031 3.43294 32.3082 3.43294 32.6981V39.3019C3.43294 39.6918 3.54211 39.9969 3.76045 40.217C3.97879 40.4371 4.28135 40.5472 4.66812 40.5472H12.3319C12.6687 40.5472 12.9588 40.4245 13.2021 40.1792C13.4454 39.934 13.5671 39.6415 13.5671 39.3019V37.2264H7.466L6.1466 34.7736H16V40.1415C16 40.9277 15.7224 41.6006 15.1672 42.1604C14.612 42.7201 13.9445 43 13.1647 43H3.83531Z" fill="#DFEFFF"/>
<path d="M26.5 29L34 43H26.0077L24.6467 40.5377H29.7722L26.5 34.1887L23.2375 40.5377H23.2471L21.8764 43H19L26.5 29Z" fill="#B2FCFF"/>
<path d="M54 29V43H51.2564V34.8019L45.4746 39.8113L39.7537 34.7925V43H37L37.0406 29.0094L45.4644 36.3208L54 29Z" fill="#DFEFFF"/>
<path d="M57 29H71L69.6703 31.4528H59.4695V34.7736H70.848L69.5183 37.2264H59.4695V40.5472H71L69.6703 43H57V29Z" fill="#DFEFFF"/>
<path d="M88.2519 29H91V43H88.2519V37.217H78.1967L76.7588 34.8679V43H74V29H76.7588V34.783H88.2519V29Z" fill="#DFEFFF"/>
<path d="M97.0181 43C96.1853 43 95.4724 42.7201 94.8795 42.1604C94.2932 41.6006 94 40.9277 94 40.1415V29H96.5884V39.3019C96.5884 39.6918 96.705 39.9969 96.9382 40.217C97.1714 40.4371 97.4945 40.5472 97.9076 40.5472H106.082C106.442 40.5472 106.752 40.4277 107.012 40.1887C107.272 39.9434 107.402 39.6478 107.402 39.3019V29H110V40.1415C110 40.9277 109.704 41.6006 109.111 42.1604C108.518 42.7201 107.805 43 106.972 43H97.0181Z" fill="#DFEFFF"/>
<path d="M125.692 39.3019V38.5C125.692 38.1478 125.566 37.8459 125.314 37.5943C125.062 37.3428 124.762 37.217 124.416 37.217H117.899L117.89 37.1981L116.566 34.7736H123.564C123.911 34.7736 124.211 34.6541 124.463 34.4151C124.721 34.1761 124.86 33.8836 124.879 33.5377V32.8302C124.86 32.4528 124.724 32.1384 124.472 31.8868C124.22 31.6352 123.917 31.5094 123.564 31.5094H115.459V40.5472H124.444C124.791 40.5472 125.087 40.4245 125.333 40.1792C125.573 39.9403 125.692 39.6478 125.692 39.3019ZM127.319 34.3396C127.319 34.7736 127.224 35.1918 127.035 35.5943C127.678 36.2484 128 36.9088 128 37.5755V40.1321C128 40.9245 127.719 41.6006 127.158 42.1604C126.603 42.7201 125.932 43 125.144 43H113V29H124.463C125.245 29 125.916 29.2799 126.477 29.8396C127.038 30.3994 127.319 31.0692 127.319 31.8491V34.3396Z" fill="#DFEFFF"/>
<path d="M20.658 12.982H1.342V10.826H9.482V10.056H2.068V7.988H9.482V7.284H1.584V5.106H4.796L4.334 4.116H7.524L7.986 5.106H14.014L14.476 4.116H17.666L17.204 5.106H20.438V7.284H12.518V7.988H19.932V10.056H12.518V10.826H20.658V12.982ZM20.658 20.044H1.342V17.998H1.804V15.71V13.686V13.62H17.798C18.1207 13.62 18.4287 13.686 18.722 13.818C19.0153 13.9353 19.272 14.104 19.492 14.324C19.712 14.544 19.888 14.8007 20.02 15.094C20.152 15.3873 20.218 15.6953 20.218 16.018V17.998H20.658V20.044ZM17.16 16.414C17.16 16.2087 17.094 16.04 16.962 15.908C16.83 15.776 16.6613 15.71 16.456 15.71H15.07V17.998H17.16V16.414ZM12.034 15.71H9.922V17.998H12.034V15.71ZM4.84 17.998H6.886V15.71H4.84V17.998ZM40.876 6.954H42.636V9.22H40.876V14.544C40.876 14.9987 40.7147 15.3873 40.392 15.71C40.0693 16.018 39.6807 16.172 39.226 16.172H37.906H30.712V14.06V9.22H28.006V17.228C28.006 17.36 28.0573 17.4773 28.16 17.58C28.2627 17.668 28.38 17.712 28.512 17.712H42.636L41.8 19.978H27.104C26.5173 19.978 26.0187 19.7727 25.608 19.362C25.1973 18.9513 24.992 18.4527 24.992 17.866V9.22H23.364V6.954H24.992V4.182H28.006V6.954H30.712V4.182H33.726L33.748 6.954H37.906V4.182H40.876V6.954ZM37.906 9.22H33.748L33.77 13.422V13.906H37.444C37.576 13.906 37.686 13.862 37.774 13.774C37.862 13.686 37.906 13.576 37.906 13.444V9.22ZM49.852 9.066H48.51L49.852 12.718H47.146L45.342 7.768H46.684L45.342 4.116H48.048L49.852 9.066ZM47.146 13.752H49.852L48.048 20.066H45.342L47.146 13.752ZM55.176 5.568H57.486V7.812H53.592L53.482 9.506H57.486V9.638V11.75V17.58C57.486 17.9173 57.42 18.2327 57.288 18.526C57.1707 18.8193 57.002 19.076 56.782 19.296C56.562 19.516 56.3053 19.692 56.012 19.824C55.7187 19.9413 55.4033 20 55.066 20H53.064L53.768 18.086H54.01C54.2007 18.086 54.362 18.02 54.494 17.888C54.626 17.756 54.692 17.5947 54.692 17.404V11.75H53.35L52.866 20H50.226L50.952 7.812H50.358V5.568H52.756L52.624 4.094H55.044L55.176 5.568ZM61.732 5.458H64.658V7.702H61.182H58.85H58.124L59.004 4.116H62.04L61.732 5.458ZM63.008 12.476V13.554H64.658V15.798H63.008V17.58C63.008 17.9173 62.942 18.2327 62.81 18.526C62.6927 18.8193 62.524 19.076 62.304 19.296C62.084 19.516 61.8273 19.692 61.534 19.824C61.2407 19.9413 60.9253 20 60.588 20H58.124L58.806 18.086H59.598C59.7887 18.086 59.95 18.02 60.082 17.888C60.2287 17.756 60.302 17.5947 60.302 17.404V15.798H58.124V13.554H60.302V12.476L61.094 10.716H58.124V8.472H62.304H63.25H64.658L63.008 12.476ZM84.106 14.148L86.592 19.956H83.446L82.126 16.832L79.816 19.956H76.384L80.894 13.906L78.694 8.802H76.516V6.382H77.682L76.67 3.984H79.816L80.784 6.382H82.764L81.994 3.984H85.052L86.636 8.802H81.84L82.874 11.222L83.072 10.936H86.46L84.106 14.148ZM76.054 6.602C75.9807 7.40867 75.8633 8.17867 75.702 8.912C75.5553 9.64533 75.372 10.364 75.152 11.068C74.712 12.4173 74.1253 13.664 73.392 14.808C73.788 15.3067 74.1987 15.7393 74.624 16.106C74.8587 16.2967 75.086 16.4727 75.306 16.634C75.5407 16.7953 75.79 16.964 76.054 17.14V20.176C75.6287 20.0147 75.2107 19.8313 74.8 19.626C74.404 19.4207 74.0227 19.186 73.656 18.922C72.908 18.4087 72.2187 17.8147 71.588 17.14C70.3413 18.4747 68.9333 19.4647 67.364 20.11V17.074C67.848 16.7513 68.3027 16.414 68.728 16.062C69.1533 15.71 69.5493 15.3213 69.916 14.896C68.728 12.8573 67.892 10.3493 67.408 7.372H70.268C70.3413 7.84133 70.4293 8.28867 70.532 8.714C70.6347 9.13933 70.752 9.55 70.884 9.946C71.0013 10.342 71.126 10.7233 71.258 11.09C71.4047 11.4567 71.5587 11.8087 71.72 12.146C72.072 11.398 72.3873 10.5547 72.666 9.616C72.93 8.67733 73.1207 7.67267 73.238 6.602H67.364V4.336H76.054V6.602Z" fill="#DFEFFF"/>
</svg>
