<svg width="301" height="200" viewBox="0 0 301 200" fill="none" xmlns="http://www.w3.org/2000/svg">
<g opacity="0.2">
<path d="M307.71 94.9778C307.371 99.2538 303.632 102.443 299.356 102.104C295.08 101.765 291.894 98.0261 292.233 93.7501C292.572 89.474 296.311 86.2882 300.584 86.6271C304.856 86.966 308.049 90.7056 307.71 94.9778Z" fill="#92D6FF"/>
<path d="M306.3 113.186C305.96 117.478 302.204 120.682 297.913 120.341C293.621 120.001 290.418 116.245 290.758 111.954C291.098 107.662 294.855 104.455 299.146 104.795C303.437 105.136 306.641 108.891 306.3 113.186Z" fill="#92D6FF"/>
<path d="M306.059 72.2804C305.763 76.009 302.503 78.7898 298.774 78.494C295.046 78.1983 292.265 74.9383 292.561 71.2097C292.857 67.4811 296.117 64.7003 299.845 64.9961C303.574 65.2918 306.355 68.5518 306.059 72.2804Z" fill="#92D6FF"/>
<path d="M291.677 84.5495C291.381 88.2743 288.121 91.0589 284.393 90.7631C280.664 90.4673 277.883 87.2035 278.179 83.4788C278.474 79.754 281.735 76.9694 285.463 77.2651C289.192 77.5609 291.973 80.8209 291.677 84.5495Z" fill="#92D6FF"/>
<path d="M285.639 102.388C285.331 106.269 281.934 109.17 278.049 108.862C274.163 108.554 271.267 105.154 271.574 101.272C271.882 97.3903 275.279 94.4931 279.164 94.8014C283.05 95.1096 285.947 98.5059 285.639 102.388Z" fill="#92D6FF"/>
<path d="M289.106 120.98C288.797 124.88 285.38 127.795 281.479 127.486C277.578 127.176 274.663 123.759 274.973 119.858C275.282 115.958 278.699 113.043 282.6 113.352C286.501 113.662 289.416 117.079 289.106 120.98Z" fill="#92D6FF"/>
<path d="M301.727 135.391C301.402 139.487 297.816 142.546 293.72 142.221C289.624 141.896 286.56 138.31 286.885 134.214C287.21 130.118 290.797 127.058 294.897 127.384C298.997 127.709 302.052 131.295 301.727 135.391Z" fill="#92D6FF"/>
<path d="M300.891 45.8058C304.267 46.0736 306.787 49.0279 306.52 52.4043C306.252 55.7807 303.298 58.3007 299.921 58.0329C296.545 57.765 294.025 54.8108 294.293 51.4344C294.56 48.058 297.515 45.538 300.891 45.8058Z" fill="#92D6FF"/>
<path d="M289.555 60.6008C289.278 64.0921 286.221 66.7002 282.729 66.4232C279.238 66.1463 276.63 63.0888 276.907 59.5975C277.184 56.1063 280.238 53.4978 283.733 53.7751C287.228 54.0523 289.832 57.1096 289.555 60.6008Z" fill="#92D6FF"/>
<path d="M276.634 74.1956C276.338 77.9242 273.078 80.705 269.353 80.4095C265.629 80.114 262.844 76.8537 263.14 73.1251C263.436 69.3965 266.696 66.6157 270.424 66.9115C274.153 67.2073 276.93 70.467 276.634 74.1956Z" fill="#92D6FF"/>
<path d="M268.31 91.4716C268.033 94.9629 264.979 97.5713 261.484 97.294C257.989 97.0168 255.385 93.9595 255.662 90.4683C255.939 86.977 258.996 84.3689 262.488 84.6459C265.979 84.9228 268.587 87.9765 268.31 91.4716Z" fill="#92D6FF"/>
<path d="M266.841 110.438C266.562 113.948 263.488 116.571 259.978 116.292C256.467 116.014 253.845 112.94 254.124 109.429C254.402 105.919 257.476 103.297 260.986 103.575C264.497 103.853 267.119 106.928 266.841 110.438Z" fill="#92D6FF"/>
<path d="M272.409 128.816C272.109 132.599 268.796 135.425 265.01 135.125C261.223 134.825 258.397 131.511 258.697 127.729C258.997 123.946 262.311 121.116 266.097 121.416C269.883 121.717 272.71 125.03 272.409 128.816Z" fill="#92D6FF"/>
<path d="M283.446 144.31C283.145 148.096 279.832 150.923 276.05 150.623C272.267 150.323 269.437 147.009 269.737 143.223C270.038 139.437 273.351 136.614 277.137 136.915C280.923 137.215 283.746 140.528 283.446 144.31Z" fill="#92D6FF"/>
<path d="M299.155 155.099C298.853 158.904 295.523 161.745 291.718 161.443C287.913 161.141 285.072 157.811 285.374 154.006C285.676 150.201 289.006 147.36 292.811 147.662C296.616 147.964 299.457 151.294 299.155 155.099Z" fill="#92D6FF"/>
<path d="M307.257 33.3297C307.015 36.3731 304.351 38.6426 301.307 38.4011C298.264 38.1597 295.991 35.4947 296.232 32.4552C296.473 29.4156 299.138 27.1385 302.182 27.38C305.225 27.6214 307.498 30.2864 307.257 33.3297Z" fill="#92D6FF"/>
<path d="M289.405 39.2322C289.151 42.4325 286.35 44.8221 283.149 44.5683C279.949 44.3144 277.559 41.513 277.813 38.3127C278.067 35.1124 280.868 32.7228 284.069 32.9767C287.269 33.2305 289.659 36.0319 289.405 39.2322Z" fill="#92D6FF"/>
<path d="M272.944 49.5682C272.71 52.5159 270.136 54.7154 267.188 54.4816C264.24 54.2478 262.041 51.6696 262.275 48.7219C262.509 45.7742 265.087 43.575 268.035 43.8088C270.982 44.0426 273.178 46.6206 272.944 49.5682Z" fill="#92D6FF"/>
<path d="M260.639 63.7662C260.385 66.9665 257.588 69.3564 254.384 69.1022C251.18 68.848 248.798 66.0473 249.052 62.847C249.305 59.6466 252.103 57.2606 255.303 57.5144C258.503 57.7683 260.893 60.5658 260.639 63.7662Z" fill="#92D6FF"/>
<path d="M251.686 80.7298C251.445 83.7731 248.78 86.0464 245.74 85.8053C242.701 85.5642 240.423 82.8989 240.665 79.8555C240.906 76.8122 243.571 74.5427 246.614 74.7841C249.658 75.0255 251.927 77.6902 251.686 80.7298Z" fill="#92D6FF"/>
<path d="M247.853 99.3893C247.605 102.513 244.874 104.843 241.75 104.595C238.626 104.347 236.296 101.616 236.544 98.4923C236.792 95.3686 239.523 93.0389 242.647 93.2867C245.771 93.5345 248.1 96.2694 247.853 99.3893Z" fill="#92D6FF"/>
<path d="M248.837 118.433C248.589 121.556 245.858 123.886 242.738 123.638C239.618 123.391 237.285 120.66 237.532 117.536C237.78 114.412 240.511 112.082 243.635 112.33C246.759 112.578 249.084 115.313 248.837 118.433Z" fill="#92D6FF"/>
<path d="M255.285 136.614C255.012 140.051 252.008 142.614 248.57 142.341C245.133 142.068 242.574 139.065 242.847 135.627C243.12 132.189 246.123 129.631 249.557 129.903C252.991 130.176 255.557 133.18 255.285 136.614Z" fill="#92D6FF"/>
<path d="M265.308 152.587C265.051 155.825 262.217 158.243 258.978 157.986C255.739 157.729 253.322 154.895 253.578 151.656C253.835 148.418 256.67 146 259.908 146.257C263.147 146.514 265.565 149.348 265.308 152.587Z" fill="#92D6FF"/>
<path d="M279.503 165.359C279.244 168.621 276.393 171.049 273.135 170.79C269.878 170.532 267.442 167.68 267.7 164.423C267.959 161.165 270.814 158.733 274.071 158.992C277.329 159.25 279.761 162.101 279.503 165.359Z" fill="#92D6FF"/>
<path d="M291.09 167.268C294.564 167.543 297.156 170.582 296.881 174.056C296.605 177.53 293.566 180.122 290.092 179.847C286.619 179.571 284.026 176.532 284.302 173.058C284.577 169.585 287.617 166.992 291.09 167.268Z" fill="#92D6FF"/>
<path d="M308.063 14.575C307.848 17.2891 305.476 19.3122 302.762 19.0969C300.048 18.8816 298.025 16.5099 298.24 13.7958C298.455 11.0816 300.827 9.05857 303.541 9.27387C306.255 9.48917 308.278 11.8647 308.063 14.575Z" fill="#92D6FF"/>
<path d="M289.82 19.0453C289.59 21.9356 287.062 24.0887 284.176 23.8597C281.289 23.6308 279.132 21.1021 279.361 18.2157C279.59 15.3293 282.119 13.1724 285.005 13.4013C287.892 13.6303 290.049 16.1551 289.82 19.0453Z" fill="#92D6FF"/>
<path d="M272.232 27.2266C272.019 29.9216 269.664 31.9268 266.969 31.713C264.274 31.4992 262.265 29.1441 262.478 26.4529C262.692 23.7617 265.051 21.7492 267.742 21.9627C270.433 22.1762 272.446 24.5316 272.232 27.2266Z" fill="#92D6FF"/>
<path d="M257.081 38.8373C256.868 41.5285 254.513 43.5374 251.821 43.3239C249.13 43.1105 247.117 40.755 247.331 38.0639C247.544 35.3727 249.904 33.3602 252.595 33.5737C255.286 33.7872 257.295 36.1423 257.081 38.8373Z" fill="#92D6FF"/>
<path d="M245.03 53.3707C244.801 56.261 242.277 58.4144 239.386 58.1851C236.496 57.9559 234.343 55.4275 234.572 52.5411C234.801 49.6547 237.33 47.4977 240.216 47.7267C243.102 47.9556 245.259 50.4843 245.03 53.3707Z" fill="#92D6FF"/>
<path d="M235.593 70.1154C235.378 72.8295 233.006 74.8487 230.292 74.6334C227.578 74.4181 225.555 72.0465 225.77 69.3362C225.985 66.6258 228.361 64.5993 231.071 64.8143C233.782 65.0293 235.808 67.405 235.593 70.1154Z" fill="#92D6FF"/>
<path d="M230.267 88.4177C230.047 91.1892 227.621 93.2581 224.854 93.0385C222.086 92.819 220.013 90.3933 220.233 87.6218C220.453 84.8502 222.878 82.7813 225.65 83.0012C228.421 83.221 230.486 85.6461 230.267 88.4177Z" fill="#92D6FF"/>
<path d="M228.756 107.448C228.536 110.22 226.111 112.289 223.343 112.069C220.575 111.85 218.502 109.424 218.722 106.652C218.942 103.881 221.368 101.812 224.139 102.032C226.911 102.252 228.976 104.677 228.756 107.448Z" fill="#92D6FF"/>
<path d="M231.166 126.368C230.949 129.101 228.561 131.138 225.824 130.921C223.087 130.704 221.054 128.312 221.27 125.583C221.487 122.853 223.879 120.813 226.609 121.029C229.338 121.246 231.383 123.635 231.166 126.368Z" fill="#92D6FF"/>
<path d="M237.88 144.394C237.648 147.319 235.086 149.504 232.161 149.272C229.237 149.04 227.052 146.478 227.284 143.554C227.516 140.629 230.078 138.44 233.002 138.672C235.927 138.904 238.112 141.466 237.88 144.394Z" fill="#92D6FF"/>
<path d="M247.844 160.678C247.612 163.603 245.05 165.788 242.125 165.556C239.201 165.324 237.015 162.762 237.247 159.837C237.479 156.913 240.041 154.724 242.966 154.956C245.891 155.188 248.076 157.749 247.844 160.678Z" fill="#92D6FF"/>
<path d="M261.15 174.543C260.911 177.567 258.266 179.826 255.242 179.586C252.218 179.347 249.958 176.698 250.198 173.674C250.438 170.65 253.086 168.394 256.111 168.634C259.135 168.874 261.39 171.518 261.15 174.543Z" fill="#92D6FF"/>
<path d="M276.769 185.358C276.534 188.325 273.935 190.538 270.972 190.303C268.009 190.068 265.792 187.472 266.028 184.506C266.263 181.539 268.858 179.326 271.825 179.561C274.791 179.796 277.005 182.391 276.769 185.358Z" fill="#92D6FF"/>
<path d="M294.682 192.696C294.434 195.819 291.703 198.149 288.579 197.901C285.455 197.654 283.129 194.923 283.377 191.799C283.625 188.675 286.356 186.346 289.476 186.593C292.596 186.841 294.929 189.576 294.682 192.696Z" fill="#92D6FF"/>
<path d="M308.89 -4.00734C308.701 -1.62625 306.618 0.150087 304.237 -0.0387937C301.856 -0.227674 300.08 -2.31393 300.269 -4.6912C300.457 -7.06847 302.544 -8.8483 304.921 -8.65973C307.298 -8.47115 309.079 -6.38844 308.89 -4.00734Z" fill="#92D6FF"/>
<path d="M289.934 -0.554124C289.753 1.72744 287.753 3.4333 285.471 3.25231C283.19 3.07133 281.484 1.07152 281.665 -1.21004C281.846 -3.49161 283.842 -5.19775 286.127 -5.01646C288.413 -4.83517 290.115 -2.83569 289.934 -0.554124Z" fill="#92D6FF"/>
<path d="M272.291 6.14395C272.099 8.56333 269.979 10.3714 267.56 10.1795C265.141 9.98755 263.332 7.87177 263.524 5.44856C263.717 3.02535 265.832 1.22082 268.255 1.41305C270.679 1.60527 272.483 3.72075 272.291 6.14395Z" fill="#92D6FF"/>
<path d="M255.897 15.8339C255.702 18.2915 253.553 20.1281 251.096 19.9331C248.638 19.7382 246.802 17.5855 246.997 15.1279C247.192 12.6702 249.344 10.8339 251.802 11.0289C254.26 11.2239 256.092 13.3762 255.897 15.8339Z" fill="#92D6FF"/>
<path d="M241.367 28.225C241.172 30.6865 239.019 32.5189 236.565 32.3242C234.112 32.1296 232.271 29.9805 232.466 27.519C232.662 25.0575 234.81 23.2248 237.272 23.42C239.733 23.6153 241.562 25.7635 241.367 28.225Z" fill="#92D6FF"/>
<path d="M229.139 42.9538C228.947 45.3732 226.827 47.1812 224.408 46.9893C221.988 46.7974 220.18 44.6816 220.372 42.2584C220.564 39.8352 222.684 38.031 225.103 38.2229C227.522 38.4148 229.331 40.5306 229.139 42.9538Z" fill="#92D6FF"/>
<path d="M219.478 59.5493C219.297 61.8309 217.297 63.5367 215.015 63.3558C212.734 63.1748 211.028 61.175 211.209 58.8934C211.39 56.6119 213.386 54.9057 215.671 55.087C217.957 55.2683 219.659 57.2678 219.478 59.5493Z" fill="#92D6FF"/>
<path d="M213.268 77.5632C213.079 79.9443 210.996 81.7206 208.615 81.5317C206.234 81.3428 204.458 79.2604 204.647 76.8793C204.835 74.4982 206.918 72.7219 209.299 72.9108C211.68 73.0997 213.456 75.1821 213.268 77.5632Z" fill="#92D6FF"/>
<path d="M210.175 96.4009C209.983 98.8203 207.863 100.628 205.444 100.436C203.024 100.244 201.22 98.129 201.412 95.7058C201.604 93.2826 203.72 91.4781 206.139 91.67C208.559 91.8619 210.367 93.9777 210.175 96.4009Z" fill="#92D6FF"/>
<path d="M210.363 115.504C210.169 117.942 208.037 119.765 205.594 119.571C203.152 119.377 201.334 117.242 201.527 114.803C201.721 112.365 203.857 110.542 206.295 110.736C208.734 110.929 210.556 113.065 210.363 115.504Z" fill="#92D6FF"/>
<path d="M213.762 134.275C213.572 136.676 211.473 138.47 209.072 138.28C206.672 138.089 204.878 135.99 205.069 133.586C205.259 131.182 207.358 129.395 209.762 129.586C212.166 129.777 213.953 131.875 213.762 134.275Z" fill="#92D6FF"/>
<path d="M220.827 152.201C220.619 154.816 218.33 156.765 215.716 156.557C213.101 156.35 211.148 154.065 211.356 151.45C211.563 148.836 213.852 146.883 216.467 147.09C219.081 147.298 221.034 149.587 220.827 152.201Z" fill="#92D6FF"/>
<path d="M230.76 168.68C230.542 171.432 228.137 173.487 225.385 173.269C222.632 173.051 220.577 170.642 220.796 167.889C221.014 165.137 223.423 163.086 226.175 163.304C228.927 163.523 230.979 165.927 230.76 168.68Z" fill="#92D6FF"/>
<path d="M242.73 183.178C242.531 185.693 240.324 187.575 237.809 187.376C235.294 187.176 233.416 184.974 233.616 182.455C233.815 179.936 236.018 178.058 238.533 178.257C241.048 178.457 242.93 180.659 242.73 183.178Z" fill="#92D6FF"/>
<path d="M257.881 195.37C257.663 198.122 255.254 200.177 252.502 199.959C249.749 199.74 247.699 197.332 247.917 194.579C248.135 191.827 250.54 189.776 253.292 189.994C256.045 190.212 258.099 192.621 257.881 195.37Z" fill="#92D6FF"/>
<path d="M274.32 204.772C274.109 207.424 271.791 209.406 269.134 209.195C266.478 208.984 264.501 206.662 264.711 204.009C264.922 201.356 267.244 199.372 269.897 199.582C272.55 199.793 274.531 202.115 274.32 204.772Z" fill="#92D6FF"/>
<path d="M239.358 4.7227C239.2 6.71332 237.457 8.19681 235.467 8.0389C233.476 7.881 231.992 6.14152 232.15 4.15089C232.308 2.16026 234.048 0.672621 236.038 0.830527C238.029 0.988434 239.517 2.72824 239.358 4.7227Z" fill="#92D6FF"/>
<path d="M225.684 17.6826C225.509 19.8876 223.576 21.5332 221.375 21.3586C219.173 21.184 217.524 19.2541 217.699 17.0491C217.873 14.8441 219.803 13.1982 222.008 13.3731C224.213 13.548 225.859 15.4814 225.684 17.6826Z" fill="#92D6FF"/>
<path d="M213.567 32.558C213.398 34.6864 211.539 36.2724 209.411 36.1036C207.282 35.9348 205.696 34.0754 205.865 31.947C206.034 29.8186 207.893 28.2326 210.022 28.4014C212.15 28.5702 213.736 30.4295 213.567 32.558Z" fill="#92D6FF"/>
<path d="M204.226 49.0823C204.045 51.3639 202.049 53.07 199.763 52.8887C197.478 52.7074 195.776 50.708 195.957 48.4264C196.138 46.1448 198.138 44.439 200.419 44.62C202.701 44.8009 204.407 46.8007 204.226 49.0823Z" fill="#92D6FF"/>
<path d="M196.741 66.8021C196.578 68.8502 194.785 70.3798 192.737 70.2173C190.689 70.0549 189.159 68.2617 189.322 66.2136C189.484 64.1656 191.277 62.636 193.325 62.7984C195.373 62.9609 196.903 64.7541 196.741 66.8021Z" fill="#92D6FF"/>
<path d="M192.484 85.4132C192.318 87.5033 190.491 89.0611 188.401 88.8953C186.311 88.7295 184.753 86.9033 184.919 84.8131C185.085 82.723 186.915 81.1693 189.001 81.3348C191.087 81.5003 192.649 83.3269 192.484 85.4132Z" fill="#92D6FF"/>
<path d="M190.972 104.462C190.806 106.549 188.98 108.107 186.89 107.941C184.799 107.775 183.242 105.949 183.407 103.862C183.573 101.776 185.403 100.215 187.489 100.38C189.576 100.546 191.137 102.372 190.972 104.462Z" fill="#92D6FF"/>
<path d="M192.281 123.515C192.117 125.582 190.307 127.126 188.236 126.961C186.165 126.797 184.625 124.988 184.789 122.92C184.953 120.853 186.763 119.306 188.83 119.47C190.898 119.634 192.445 121.444 192.281 123.515Z" fill="#92D6FF"/>
<path d="M196.873 142.193C196.691 144.498 194.678 146.214 192.374 146.032C190.069 145.849 188.353 143.833 188.536 141.532C188.718 139.231 190.735 137.511 193.035 137.694C195.336 137.876 197.056 139.889 196.873 142.193Z" fill="#92D6FF"/>
<path d="M203.529 159.986C203.357 162.153 201.461 163.767 199.298 163.595C197.135 163.424 195.513 161.527 195.685 159.364C195.857 157.201 197.753 155.583 199.92 155.755C202.086 155.927 203.7 157.823 203.529 159.986Z" fill="#92D6FF"/>
<path d="M213.539 176.617C213.344 179.075 211.191 180.911 208.733 180.716C206.276 180.521 204.439 178.368 204.634 175.911C204.829 173.453 206.982 171.617 209.44 171.812C211.897 172.007 213.734 174.159 213.539 176.617Z" fill="#92D6FF"/>
<path d="M225.069 191.58C224.888 193.861 222.892 195.568 220.607 195.386C218.322 195.205 216.62 193.206 216.801 190.924C216.982 188.642 218.981 186.937 221.263 187.118C223.545 187.299 225.25 189.298 225.069 191.58Z" fill="#92D6FF"/>
<path d="M239.018 204.636C238.837 206.918 236.837 208.624 234.555 208.443C232.274 208.262 230.568 206.262 230.749 203.98C230.93 201.699 232.926 199.993 235.211 200.174C237.497 200.355 239.199 202.355 239.018 204.636Z" fill="#92D6FF"/>
<path d="M209.694 7.15277C209.554 8.90988 208.017 10.221 206.26 10.0816C204.503 9.94221 203.192 8.40518 203.331 6.64807C203.471 4.89096 205.008 3.58369 206.765 3.72308C208.522 3.86246 209.833 5.39565 209.694 7.15277Z" fill="#92D6FF"/>
<path d="M197.783 22.1449C197.647 23.8599 196.143 25.1466 194.424 25.0103C192.705 24.8739 191.426 23.3703 191.562 21.6514C191.699 19.9326 193.198 18.6532 194.917 18.7896C196.636 18.9259 197.919 20.4299 197.783 22.1449Z" fill="#92D6FF"/>
<path d="M188.213 38.5787C188.068 40.4123 186.46 41.7834 184.63 41.6382C182.801 41.493 181.426 39.8855 181.571 38.0518C181.717 36.2181 183.32 34.8468 185.158 34.9926C186.995 35.1383 188.359 36.7412 188.213 38.5787Z" fill="#92D6FF"/>
<path d="M180.377 56.109C180.244 57.7857 178.777 59.0407 177.096 58.9074C175.416 58.7741 174.164 57.3073 174.298 55.6268C174.431 53.9462 175.898 52.695 177.578 52.8283C179.259 52.9617 180.51 54.4284 180.377 56.109Z" fill="#92D6FF"/>
<path d="M175.319 74.5101C175.18 76.2673 173.643 77.5745 171.886 77.4351C170.129 77.2958 168.818 75.7587 168.957 74.0054C169.096 72.2522 170.634 70.9372 172.391 71.0766C174.148 71.216 175.459 72.753 175.319 74.5101Z" fill="#92D6FF"/>
<path d="M172.602 93.4202C172.461 95.1965 170.908 96.5217 169.132 96.3808C167.355 96.2399 166.03 94.6863 166.171 92.9101C166.312 91.1338 167.865 89.8124 169.641 89.9533C171.418 90.0943 172.743 91.6478 172.602 93.4202Z" fill="#92D6FF"/>
<path d="M172.338 112.53C172.197 114.306 170.647 115.632 168.871 115.491C167.095 115.35 165.769 113.796 165.91 112.02C166.051 110.244 167.605 108.919 169.381 109.059C171.157 109.2 172.479 110.754 172.338 112.53Z" fill="#92D6FF"/>
<path d="M174.535 131.503C174.395 133.26 172.858 134.571 171.105 134.432C169.352 134.293 168.037 132.756 168.176 130.998C168.316 129.241 169.852 127.934 171.609 128.073C173.367 128.213 174.674 129.75 174.535 131.503Z" fill="#92D6FF"/>
<path d="M179.655 150.06C179.497 152.051 177.757 153.539 175.766 153.381C173.776 153.223 172.288 151.479 172.446 149.489C172.604 147.498 174.347 146.014 176.338 146.172C178.329 146.33 179.812 148.074 179.655 150.06Z" fill="#92D6FF"/>
<path d="M186.513 167.798C186.365 169.669 184.725 171.069 182.853 170.92C180.981 170.772 179.581 169.135 179.73 167.259C179.879 165.384 181.515 163.988 183.391 164.137C185.267 164.286 186.662 165.926 186.513 167.798Z" fill="#92D6FF"/>
<path d="M196.054 184.494C195.896 186.485 194.156 187.968 192.166 187.81C190.175 187.653 188.687 185.913 188.845 183.922C189.003 181.931 190.747 180.448 192.737 180.606C194.728 180.764 196.212 182.503 196.054 184.494Z" fill="#92D6FF"/>
<path d="M207.156 199.787C207.012 201.601 205.425 202.955 203.611 202.811C201.796 202.667 200.439 201.08 200.583 199.265C200.727 197.451 202.314 196.094 204.132 196.238C205.95 196.382 207.3 197.972 207.156 199.787Z" fill="#92D6FF"/>
<path d="M182.246 11.7565C182.131 13.1997 180.867 14.2743 179.424 14.1599C177.981 14.0454 176.902 12.7849 177.017 11.3417C177.131 9.89847 178.395 8.82 179.839 8.93448C181.282 9.04896 182.36 10.3133 182.246 11.7565Z" fill="#92D6FF"/>
<path d="M172.555 28.1174C172.431 29.6793 171.064 30.8421 169.506 30.7185C167.948 30.5949 166.777 29.2308 166.901 27.6689C167.025 26.107 168.389 24.9401 169.954 25.0643C171.52 25.1885 172.679 26.5517 172.555 28.1174Z" fill="#92D6FF"/>
<path d="M164.298 45.4797C164.188 46.8655 162.977 47.8981 161.591 47.7882C160.206 47.6783 159.173 46.4677 159.283 45.0819C159.393 43.6961 160.603 42.6634 161.989 42.7734C163.375 42.8833 164.408 44.0939 164.298 45.4797Z" fill="#92D6FF"/>
<path d="M158.578 63.6793C158.462 65.1417 157.181 66.2381 155.718 66.1221C154.256 66.0061 153.164 64.7214 153.28 63.259C153.396 61.7967 154.677 60.7041 156.139 60.8201C157.601 60.9361 158.694 62.217 158.578 63.6793Z" fill="#92D6FF"/>
<path d="M154.898 82.4286C154.78 83.9139 153.482 85.0206 151.997 84.9028C150.512 84.7849 149.409 83.4917 149.527 82.0026C149.645 80.5134 150.942 79.4144 152.423 79.5319C153.905 79.6494 155.015 80.9471 154.898 82.4286Z" fill="#92D6FF"/>
<path d="M153.387 101.481C153.269 102.962 151.972 104.073 150.486 103.955C149.001 103.837 147.898 102.54 148.016 101.055C148.134 99.5694 149.431 98.4627 150.913 98.5802C152.394 98.6977 153.505 99.9954 153.387 101.481Z" fill="#92D6FF"/>
<path d="M154.065 120.58C153.949 122.043 152.668 123.135 151.206 123.019C149.743 122.903 148.651 121.622 148.767 120.16C148.883 118.698 150.164 117.605 151.626 117.721C153.088 117.837 154.181 119.118 154.065 120.58Z" fill="#92D6FF"/>
<path d="M156.881 139.456C156.769 140.861 155.539 141.907 154.134 141.796C152.729 141.684 151.678 140.457 151.79 139.052C151.901 137.647 153.128 136.597 154.537 136.708C155.946 136.82 156.992 138.051 156.881 139.456Z" fill="#92D6FF"/>
<path d="M162.329 157.905C162.203 159.505 160.802 160.7 159.206 160.573C157.609 160.446 156.411 159.045 156.537 157.445C156.664 155.845 158.065 154.65 159.665 154.777C161.265 154.904 162.456 156.304 162.329 157.905Z" fill="#92D6FF"/>
<path d="M169.32 175.593C169.203 177.075 167.905 178.185 166.42 178.068C164.935 177.95 163.832 176.653 163.95 175.167C164.067 173.682 165.365 172.575 166.846 172.693C168.328 172.81 169.438 174.108 169.32 175.593Z" fill="#92D6FF"/>
<path d="M179.02 192.381C178.881 194.138 177.344 195.45 175.59 195.31C173.837 195.171 172.522 193.634 172.662 191.877C172.801 190.12 174.338 188.809 176.095 188.948C177.852 189.088 179.159 190.624 179.02 192.381Z" fill="#92D6FF"/>
<path d="M166.531 1.34846C166.446 2.42033 165.508 3.22422 164.436 3.13919C163.364 3.05417 162.56 2.11594 162.645 1.04024C162.731 -0.0354687 163.668 -0.831696 164.744 -0.746366C165.82 -0.661036 166.616 0.276581 166.531 1.34846Z" fill="#92D6FF"/>
<path d="M156.781 17.6603C156.685 18.87 155.627 19.7761 154.417 19.6802C153.207 19.5842 152.302 18.5223 152.398 17.3126C152.494 16.1029 153.555 15.201 154.765 15.297C155.975 15.3929 156.877 16.4506 156.781 17.6603Z" fill="#92D6FF"/>
<path d="M148.716 34.9216C148.612 36.227 147.468 37.2033 146.163 37.0997C144.857 36.9962 143.877 35.8514 143.981 34.546C144.084 33.2406 145.229 32.2605 146.538 32.3643C147.847 32.4682 148.82 33.6124 148.716 34.9216Z" fill="#92D6FF"/>
<path d="M141.975 52.9077C141.887 54.0179 140.912 54.8496 139.802 54.7616C138.692 54.6735 137.86 53.6984 137.948 52.5882C138.036 51.4781 139.011 50.6425 140.121 50.7305C141.232 50.8186 142.063 51.7937 141.975 52.9077Z" fill="#92D6FF"/>
<path d="M137.642 71.4977C137.547 72.6882 136.506 73.5764 135.315 73.4819C134.125 73.3875 133.237 72.3463 133.331 71.1557C133.426 69.9652 134.467 69.077 135.657 69.1715C136.848 69.2659 137.736 70.3071 137.642 71.4977Z" fill="#92D6FF"/>
<path d="M135.171 90.4511C135.075 91.6608 134.017 92.563 132.804 92.4668C131.59 92.3705 130.692 91.3131 130.788 90.1034C130.884 88.8937 131.942 87.9914 133.151 88.0874C134.361 88.1833 135.267 89.2414 135.171 90.4511Z" fill="#92D6FF"/>
<path d="M134.658 109.556C134.562 110.765 133.504 111.668 132.294 111.572C131.084 111.476 130.182 110.418 130.278 109.208C130.374 107.998 131.432 107.096 132.642 107.192C133.851 107.288 134.754 108.346 134.658 109.556Z" fill="#92D6FF"/>
<path d="M136.107 128.609C136.013 129.8 134.972 130.688 133.781 130.594C132.591 130.499 131.703 129.458 131.797 128.267C131.891 127.077 132.933 126.189 134.123 126.283C135.314 126.378 136.202 127.419 136.107 128.609Z" fill="#92D6FF"/>
<path d="M139.969 147.436C139.858 148.841 138.63 149.892 137.225 149.78C135.82 149.669 134.77 148.441 134.882 147.033C134.993 145.624 136.22 144.581 137.629 144.693C139.038 144.805 140.08 146.035 139.969 147.436Z" fill="#92D6FF"/>
<path d="M145.246 165.756C145.141 167.084 143.979 168.075 142.651 167.969C141.323 167.864 140.332 166.703 140.438 165.374C140.543 164.046 141.704 163.06 143.032 163.165C144.361 163.27 145.351 164.431 145.246 165.756Z" fill="#92D6FF"/>
<path d="M152.336 183.403C152.24 184.613 151.183 185.515 149.973 185.419C148.763 185.323 147.861 184.266 147.957 183.056C148.053 181.846 149.111 180.944 150.32 181.04C151.53 181.136 152.432 182.194 152.336 183.403Z" fill="#92D6FF"/>
<path d="M161.661 200.226C161.556 201.554 160.395 202.545 159.066 202.439C157.738 202.334 156.751 201.173 156.857 199.845C156.962 198.516 158.123 197.526 159.448 197.631C160.772 197.736 161.766 198.898 161.661 200.226Z" fill="#92D6FF"/>
<path d="M141.198 7.22492C141.123 8.18195 140.284 8.89359 139.331 8.81798C138.378 8.74237 137.662 7.90744 137.738 6.9504C137.814 5.99337 138.648 5.28144 139.605 5.35736C140.562 5.43328 141.274 6.27171 141.198 7.22492Z" fill="#92D6FF"/>
<path d="M132.889 24.3666C132.805 25.4193 131.884 26.2053 130.831 26.1218C129.778 26.0382 128.993 25.1169 129.076 24.0641C129.16 23.0114 130.081 22.2254 131.134 22.309C132.186 22.3925 132.972 23.3138 132.889 24.3666Z" fill="#92D6FF"/>
<path d="M125.789 42.2017C125.718 43.0975 124.933 43.7671 124.037 43.6961C123.141 43.625 122.468 42.8397 122.539 41.9439C122.61 41.0481 123.395 40.3746 124.295 40.446C125.195 40.5173 125.86 41.3021 125.789 42.2017Z" fill="#92D6FF"/>
<path d="M120.734 60.6298C120.661 61.5485 119.859 62.2323 118.941 62.1594C118.022 62.0865 117.339 61.2811 117.411 60.3662C117.484 59.4513 118.286 58.7637 119.204 58.8366C120.123 58.9095 120.807 59.711 120.734 60.6298Z" fill="#92D6FF"/>
<path d="M117.487 79.46C117.411 80.417 116.576 81.1289 115.619 81.053C114.662 80.9771 113.95 80.1425 114.026 79.1855C114.102 78.2284 114.94 77.5168 115.894 77.5924C116.847 77.668 117.562 78.5029 117.487 79.46Z" fill="#92D6FF"/>
<path d="M115.975 98.5168C115.899 99.4738 115.064 100.186 114.107 100.11C113.15 100.034 112.439 99.1954 112.514 98.2422C112.59 97.289 113.429 96.5697 114.382 96.6454C115.335 96.721 116.051 97.5597 115.975 98.5168Z" fill="#92D6FF"/>
<path d="M116.246 117.626C116.172 118.564 115.353 119.262 114.416 119.188C113.478 119.113 112.78 118.295 112.854 117.357C112.929 116.419 113.747 115.721 114.685 115.796C115.623 115.87 116.32 116.688 116.246 117.626Z" fill="#92D6FF"/>
<path d="M118.3 136.619C118.229 137.515 117.444 138.184 116.548 138.113C115.652 138.042 114.979 137.257 115.05 136.361C115.121 135.465 115.906 134.792 116.806 134.863C117.705 134.935 118.371 135.719 118.3 136.619Z" fill="#92D6FF"/>
<path d="M122.538 155.354C122.453 156.426 121.515 157.226 120.439 157.14C119.363 157.055 118.567 156.117 118.652 155.045C118.737 153.974 119.675 153.17 120.747 153.255C121.819 153.34 122.623 154.282 122.538 155.354Z" fill="#92D6FF"/>
<path d="M128.036 173.591C127.959 174.567 127.103 175.296 126.131 175.219C125.159 175.142 124.429 174.287 124.507 173.311C124.584 172.334 125.435 171.608 126.411 171.686C127.387 171.763 128.113 172.618 128.036 173.591Z" fill="#92D6FF"/>
<path d="M135.674 191.239C135.585 192.353 134.614 193.185 133.5 193.096C132.386 193.008 131.558 192.033 131.646 190.919C131.735 189.805 132.71 188.977 133.82 189.065C134.93 189.153 135.762 190.128 135.674 191.239Z" fill="#92D6FF"/>
<path d="M117.015 13.8314C116.956 14.574 116.307 15.1274 115.568 15.0688C114.829 15.0102 114.272 14.3612 114.331 13.6185C114.39 12.8758 115.039 12.3225 115.781 12.3814C116.524 12.4403 117.074 13.0887 117.015 13.8314Z" fill="#92D6FF"/>
<path d="M109.984 31.5598C109.919 32.379 109.204 32.9925 108.381 32.9273C107.558 32.862 106.948 32.1433 107.013 31.3241C107.078 30.5049 107.797 29.8916 108.616 29.9566C109.436 30.0216 110.049 30.7405 109.984 31.5598Z" fill="#92D6FF"/>
<path d="M104.097 49.8151C104.045 50.4774 103.466 50.9747 102.804 50.9221C102.141 50.8696 101.644 50.2908 101.697 49.6247C101.75 48.9586 102.332 48.4655 102.994 48.5181C103.657 48.5706 104.15 49.1529 104.097 49.8151Z" fill="#92D6FF"/>
<path d="M100.183 68.5195C100.127 69.2239 99.5115 69.7452 98.811 69.6897C98.1104 69.6341 97.585 69.0223 97.6409 68.3179C97.6967 67.6135 98.3121 67.0922 99.0126 67.1478C99.7132 67.2034 100.239 67.8152 100.183 68.5195Z" fill="#92D6FF"/>
<path d="M97.8815 87.4934C97.8241 88.2169 97.1919 88.7561 96.4684 88.6987C95.7449 88.6413 95.2056 88.0092 95.263 87.2857C95.3204 86.5621 95.9561 86.027 96.6758 86.0841C97.3955 86.1412 97.9386 86.7737 97.8815 87.4934Z" fill="#92D6FF"/>
<path d="M97.1968 106.597C97.1394 107.32 96.5075 107.855 95.7878 107.798C95.0681 107.741 94.5289 107.109 94.586 106.389C94.6431 105.67 95.2755 105.127 95.9952 105.184C96.7149 105.241 97.2541 105.873 97.1968 106.597Z" fill="#92D6FF"/>
<path d="M98.1525 125.687C98.0969 126.388 97.4812 126.913 96.7807 126.857C96.0802 126.802 95.555 126.186 95.6106 125.485C95.6662 124.785 96.278 124.259 96.9823 124.315C97.6867 124.371 98.208 124.987 98.1525 125.687Z" fill="#92D6FF"/>
<path d="M101.156 144.647C101.085 145.543 100.299 146.216 99.4034 146.145C98.5076 146.074 97.838 145.289 97.9093 144.389C97.9807 143.49 98.7619 142.82 99.6615 142.891C100.561 142.962 101.227 143.747 101.156 144.647Z" fill="#92D6FF"/>
<path d="M105.338 163.265C105.271 164.107 104.536 164.731 103.701 164.665C102.867 164.598 102.236 163.863 102.302 163.024C102.369 162.186 103.104 161.558 103.943 161.625C104.781 161.691 105.404 162.427 105.338 163.265Z" fill="#92D6FF"/>
<path d="M111.091 181.442C111.031 182.203 110.366 182.771 109.604 182.71C108.842 182.65 108.274 181.985 108.335 181.223C108.395 180.461 109.061 179.894 109.822 179.954C110.584 180.015 111.152 180.68 111.091 181.442Z" fill="#92D6FF"/>
<path d="M118.797 199.064C118.726 199.96 117.941 200.629 117.045 200.558C116.149 200.487 115.48 199.702 115.551 198.806C115.622 197.911 116.407 197.237 117.303 197.308C118.199 197.379 118.868 198.164 118.797 199.064Z" fill="#92D6FF"/>
<path d="M101.425 3.32986C101.38 3.89643 100.885 4.31936 100.318 4.27442C99.7514 4.22947 99.3323 3.73396 99.3773 3.1674C99.4222 2.60084 99.918 2.1779 100.481 2.22254C101.044 2.26718 101.47 2.7633 101.425 3.32986Z" fill="#92D6FF"/>
<path d="M94.062 20.9398C94.0125 21.5638 93.4671 22.029 92.8432 21.9795C92.2192 21.93 91.754 21.3846 91.8034 20.7606C91.8529 20.1367 92.3986 19.6676 93.0226 19.7171C93.6466 19.7666 94.1115 20.3158 94.062 20.9398Z" fill="#92D6FF"/>
<path d="M87.7899 39.0601C87.751 39.5501 87.3255 39.9131 86.8355 39.8743C86.3455 39.8354 85.9824 39.4098 86.0213 38.9198C86.0602 38.4298 86.4893 38.0709 86.9755 38.1095C87.4616 38.1481 87.8285 38.5739 87.7899 39.0601Z" fill="#92D6FF"/>
<path d="M83.2727 57.632C83.2323 58.1412 82.7902 58.5183 82.2811 58.4779C81.7719 58.4375 81.3948 57.9954 81.4352 57.4863C81.4756 56.9771 81.9177 56.6 82.4268 56.6404C82.936 56.6808 83.3131 57.1229 83.2727 57.632Z" fill="#92D6FF"/>
<path d="M80.2356 76.505C80.1955 77.0103 79.7531 77.3913 79.2439 77.3509C78.7348 77.3105 78.3577 76.8684 78.3981 76.3593C78.4385 75.8501 78.8806 75.473 79.3897 75.5134C79.8989 75.5538 80.276 75.9959 80.2356 76.505Z" fill="#92D6FF"/>
<path d="M78.7584 95.5646C78.7165 96.0929 78.254 96.4838 77.7296 96.4422C77.2051 96.4006 76.8104 95.9379 76.852 95.4134C76.8936 94.889 77.3563 94.4942 77.8808 94.5358C78.4053 94.5774 78.8 95.0402 78.7584 95.5646Z" fill="#92D6FF"/>
<path d="M78.7473 114.683C78.7072 115.188 78.2648 115.569 77.7557 115.529C77.2465 115.488 76.8694 115.046 76.9098 114.537C76.9502 114.028 77.3923 113.651 77.9014 113.691C78.4106 113.731 78.7874 114.177 78.7473 114.683Z" fill="#92D6FF"/>
<path d="M80.2792 133.734C80.2406 134.22 79.8147 134.587 79.3247 134.548C78.8347 134.509 78.4717 134.084 78.5106 133.594C78.5494 133.104 78.9788 132.741 79.465 132.78C79.9512 132.818 80.318 133.244 80.2792 133.734Z" fill="#92D6FF"/>
<path d="M83.6206 152.616C83.5711 153.24 83.0257 153.706 82.3979 153.656C81.77 153.606 81.3086 153.061 81.3581 152.437C81.4076 151.813 81.9569 151.348 82.577 151.397C83.1972 151.446 83.6701 151.992 83.6206 152.616Z" fill="#92D6FF"/>
<path d="M88.1167 171.163C88.0718 171.729 87.576 172.152 87.0094 172.107C86.4429 172.062 86.0237 171.567 86.0687 171C86.1136 170.434 86.6094 170.011 87.1722 170.055C87.7349 170.1 88.1617 170.596 88.1167 171.163Z" fill="#92D6FF"/>
<path d="M94.0871 189.28C94.0467 189.789 93.6046 190.166 93.0955 190.125C92.5864 190.085 92.2093 189.643 92.2496 189.134C92.29 188.625 92.7321 188.248 93.2413 188.288C93.7504 188.328 94.1272 188.774 94.0871 189.28Z" fill="#92D6FF"/>
<path d="M78.1523 10.3365C78.1213 10.7269 77.7784 11.0195 77.3879 10.9885C76.9974 10.9575 76.7049 10.6146 76.7359 10.2241C76.7668 9.83364 77.1098 9.54112 77.5002 9.57209C77.8907 9.60307 78.1832 9.946 78.1523 10.3365Z" fill="#92D6FF"/>
<path d="M71.5817 28.341C71.5586 28.6319 71.3025 28.8505 71.0077 28.8271C70.7129 28.8037 70.4944 28.5475 70.5175 28.2566C70.5406 27.9657 70.797 27.7433 71.0918 27.7667C71.3866 27.7901 71.6051 28.0462 71.5817 28.341Z" fill="#92D6FF"/>
<path d="M66.0714 46.1432C66.4033 46.1696 66.651 46.46 66.6247 46.7919C66.5984 47.1239 66.3079 47.3716 65.976 47.3453C65.6441 47.3189 65.3963 47.0285 65.4227 46.6966C65.449 46.3646 65.7394 46.1169 66.0714 46.1432Z" fill="#92D6FF"/>
<path d="M63.0245 65.5638C62.9968 65.9121 62.6908 66.1768 62.3386 66.1488C61.9864 66.1209 61.7259 65.8113 61.7535 65.4629C61.7812 65.1146 62.0872 64.8499 62.4394 64.8779C62.7916 64.9058 63.0521 65.2154 63.0245 65.5638Z" fill="#92D6FF"/>
<path d="M60.8018 84.5519C60.7739 84.9041 60.4643 85.1646 60.1159 85.137C59.7676 85.1093 59.5029 84.8033 59.5309 84.4511C59.5588 84.0989 59.8646 83.8381 60.2168 83.866C60.5689 83.894 60.8298 84.1997 60.8018 84.5519Z" fill="#92D6FF"/>
<path d="M60.002 103.654C59.9741 104.006 59.6683 104.267 59.3161 104.239C58.9639 104.211 58.7031 103.905 58.7311 103.553C58.759 103.201 59.0648 102.94 59.417 102.968C59.7691 102.996 60.0299 103.302 60.002 103.654Z" fill="#92D6FF"/>
<path d="M60.6319 122.761C60.604 123.113 60.2944 123.374 59.946 123.346C59.5977 123.318 59.333 123.012 59.361 122.66C59.3889 122.308 59.6946 122.047 60.0468 122.075C60.399 122.103 60.6595 122.413 60.6319 122.761Z" fill="#92D6FF"/>
<path d="M62.653 141.766C62.6266 142.1 62.3374 142.346 62.0043 142.32C61.6713 142.293 61.4246 142.004 61.451 141.671C61.4774 141.338 61.7666 141.091 62.0997 141.118C62.4327 141.144 62.6794 141.433 62.653 141.766Z" fill="#92D6FF"/>
<path d="M66.3417 160.584C66.3062 161.032 65.9137 161.367 65.462 161.331C65.0102 161.295 64.6792 160.903 64.7148 160.455C64.7503 160.007 65.1428 159.672 65.5907 159.708C66.0386 159.743 66.3773 160.136 66.3417 160.584Z" fill="#92D6FF"/>
<path d="M71.1025 179.063C71.0715 179.453 70.7286 179.746 70.3381 179.715C69.9476 179.684 69.6548 179.345 69.6861 178.95C69.7173 178.556 70.06 178.267 70.4504 178.298C70.8409 178.329 71.1334 178.672 71.1025 179.063Z" fill="#92D6FF"/>
<path d="M77.5491 197.152C77.5087 197.661 77.0627 198.038 76.5574 197.998C76.0521 197.958 75.6712 197.515 75.7116 197.006C75.7519 196.497 76.194 196.12 76.7032 196.16C77.2123 196.2 77.5891 196.646 77.5491 197.152Z" fill="#92D6FF"/>
<path d="M62.4757 -0.225253C62.4554 0.0312317 62.2325 0.217729 61.9799 0.197687C61.7272 0.177645 61.5369 -0.0454764 61.5569 -0.298133C61.577 -0.550789 61.8001 -0.741092 62.0528 -0.72105C62.3054 -0.701008 62.4957 -0.47791 62.4757 -0.225253Z" fill="#92D6FF"/>
<path d="M55.8042 17.6859C55.7826 17.9577 55.543 18.1622 55.2712 18.1406C54.9994 18.1191 54.795 17.8794 54.8165 17.6076C54.8381 17.3358 55.0777 17.1314 55.3495 17.1529C55.6213 17.1745 55.826 17.4103 55.8042 17.6859Z" fill="#92D6FF"/>
<path d="M50.3292 36.008C50.3092 36.2607 50.0861 36.451 49.8334 36.431C49.5807 36.4109 49.3901 36.1916 49.4105 35.9352C49.4308 35.6787 49.6536 35.4922 49.9063 35.5122C50.1589 35.5323 50.3493 35.7554 50.3292 36.008Z" fill="#92D6FF"/>
<path d="M46.1798 54.6697C46.1598 54.9223 45.9405 55.113 45.684 55.0926C45.4275 55.0723 45.241 54.8495 45.261 54.5968C45.2811 54.3441 45.5042 54.1538 45.7569 54.1739C46.0095 54.1939 46.1998 54.417 46.1798 54.6697Z" fill="#92D6FF"/>
<path d="M43.3439 73.579C43.3238 73.8317 43.1007 74.022 42.848 74.0019C42.5954 73.9819 42.4051 73.7588 42.4251 73.5061C42.4452 73.2535 42.6683 73.0631 42.9209 73.0832C43.1736 73.1032 43.3639 73.3263 43.3439 73.579Z" fill="#92D6FF"/>
<path d="M41.8321 92.6351C41.8121 92.8878 41.589 93.0781 41.3363 93.0581C41.0837 93.038 40.8934 92.8149 40.9134 92.5623C40.9334 92.3096 41.1566 92.1193 41.4092 92.1393C41.6619 92.1594 41.8522 92.3825 41.8321 92.6351Z" fill="#92D6FF"/>
<path d="M41.6505 111.755C41.6305 112.008 41.4112 112.199 41.1547 112.178C40.8982 112.158 40.7117 111.935 40.7318 111.682C40.7518 111.43 40.9749 111.239 41.2276 111.26C41.4802 111.28 41.6705 111.503 41.6505 111.755Z" fill="#92D6FF"/>
<path d="M42.8068 130.839C42.7867 131.092 42.5636 131.282 42.3109 131.262C42.0583 131.242 41.868 131.019 41.888 130.766C41.908 130.513 42.1312 130.323 42.3838 130.343C42.6365 130.363 42.8268 130.586 42.8068 130.839Z" fill="#92D6FF"/>
<path d="M45.3979 149.804C45.3733 150.114 45.1003 150.351 44.7864 150.326C44.4725 150.301 44.2437 150.028 44.2686 149.715C44.2935 149.401 44.5662 149.168 44.8763 149.193C45.1863 149.217 45.4228 149.49 45.3979 149.804Z" fill="#92D6FF"/>
<path d="M49.1245 168.536C49.1029 168.808 48.8633 169.012 48.5915 168.991C48.3197 168.969 48.1153 168.729 48.1368 168.458C48.1584 168.186 48.398 167.981 48.6698 168.003C48.9416 168.025 49.146 168.264 49.1245 168.536Z" fill="#92D6FF"/>
<path d="M53.7666 186.462C54.0203 186.483 54.2097 186.704 54.1896 186.958C54.1694 187.212 53.9475 187.401 53.6937 187.381C53.44 187.361 53.2507 187.139 53.2708 186.885C53.2909 186.632 53.5129 186.442 53.7666 186.462Z" fill="#92D6FF"/>
<path d="M40.1232 7.05337C40.1031 7.30603 39.88 7.49635 39.6273 7.47631C39.3747 7.45627 39.1844 7.23315 39.2044 6.98049C39.2245 6.72784 39.4476 6.53753 39.7002 6.55758C39.9529 6.57762 40.1432 6.80072 40.1232 7.05337Z" fill="#92D6FF"/>
<path d="M34.3204 25.2728C34.3004 25.5255 34.0811 25.7161 33.8246 25.6957C33.5681 25.6754 33.3816 25.4526 33.4017 25.1999C33.4217 24.9473 33.6448 24.757 33.8975 24.777C34.1501 24.797 34.3405 25.0202 34.3204 25.2728Z" fill="#92D6FF"/>
<path d="M29.7237 43.831C29.7037 44.0837 29.4844 44.2743 29.2279 44.254C28.9714 44.2336 28.785 44.0108 28.805 43.7582C28.825 43.5055 29.0482 43.3152 29.3008 43.3352C29.5535 43.3553 29.7438 43.5784 29.7237 43.831Z" fill="#92D6FF"/>
<path d="M25.9287 62.1546C26.1824 62.1747 26.3718 62.3967 26.3517 62.6504C26.3316 62.9041 26.1096 63.0935 25.8559 63.0734C25.6022 63.0532 25.4128 62.8313 25.4329 62.5776C25.453 62.3239 25.675 62.1345 25.9287 62.1546Z" fill="#92D6FF"/>
<path d="M24.2159 81.65C24.1959 81.9027 23.9766 82.0933 23.7201 82.073C23.4636 82.0526 23.2771 81.8298 23.2972 81.5772C23.3172 81.3245 23.5403 81.1342 23.793 81.1542C24.0457 81.1743 24.236 81.3974 24.2159 81.65Z" fill="#92D6FF"/>
<path d="M23.3292 100.748C23.3092 101.001 23.0861 101.191 22.8334 101.171C22.5807 101.151 22.3904 100.928 22.4105 100.675C22.4305 100.422 22.6536 100.232 22.9063 100.252C23.1589 100.272 23.3493 100.495 23.3292 100.748Z" fill="#92D6FF"/>
<path d="M23.6925 119.865C23.6721 120.122 23.4532 120.308 23.1967 120.288C22.9402 120.268 22.7537 120.045 22.7737 119.792C22.7938 119.54 23.0169 119.349 23.2696 119.369C23.5222 119.389 23.7125 119.613 23.6925 119.865Z" fill="#92D6FF"/>
<path d="M25.3048 138.915C25.2848 139.168 25.0616 139.358 24.809 139.338C24.5563 139.318 24.366 139.095 24.386 138.842C24.4061 138.59 24.6292 138.399 24.8819 138.419C25.1345 138.439 25.3248 138.663 25.3048 138.915Z" fill="#92D6FF"/>
<path d="M28.1632 157.821C28.1429 158.077 27.92 158.264 27.6674 158.244C27.4147 158.224 27.2244 158.001 27.2444 157.748C27.2645 157.495 27.4838 157.305 27.7403 157.325C27.9967 157.345 28.1832 157.568 28.1632 157.821Z" fill="#92D6FF"/>
<path d="M32.2462 176.501C32.2262 176.754 32.003 176.944 31.7504 176.924C31.4977 176.904 31.3074 176.681 31.3275 176.428C31.3475 176.175 31.5706 175.985 31.8233 176.005C32.0759 176.025 32.2662 176.248 32.2462 176.501Z" fill="#92D6FF"/>
<path d="M37.5431 194.869C37.523 195.122 37.3037 195.312 37.0473 195.292C36.7908 195.272 36.6043 195.049 36.6243 194.796C36.6444 194.544 36.8675 194.353 37.1201 194.373C37.3728 194.393 37.5631 194.616 37.5431 194.869Z" fill="#92D6FF"/>
<path d="M18.4308 14.571C18.4104 14.8275 18.1876 15.014 17.935 14.994C17.6823 14.9739 17.492 14.7508 17.512 14.4982C17.5321 14.2455 17.7552 14.0552 18.0078 14.0752C18.2605 14.0953 18.4508 14.3184 18.4308 14.571Z" fill="#92D6FF"/>
<path d="M7.92785 146.978C7.90781 147.231 7.68469 147.421 7.43203 147.401C7.17938 147.381 6.98905 147.158 7.0091 146.905C7.02914 146.653 7.25226 146.462 7.50491 146.482C7.75757 146.502 7.94789 146.725 7.92785 146.978Z" fill="#92D6FF"/>
<path d="M11.1095 165.832C11.0894 166.085 10.8663 166.275 10.6137 166.255C10.361 166.235 10.1707 166.012 10.1907 165.76C10.2108 165.507 10.4339 165.317 10.6866 165.337C10.9392 165.357 11.1295 165.58 11.1095 165.832Z" fill="#92D6FF"/>
<path d="M15.4454 184.455C15.4254 184.708 15.2061 184.898 14.9496 184.878C14.6931 184.858 14.5066 184.635 14.5267 184.382C14.5467 184.13 14.7698 183.939 15.0225 183.959C15.2751 183.979 15.4655 184.202 15.4454 184.455Z" fill="#92D6FF"/>
</g>
</svg>
